<?xml version="1.0" encoding="utf-8"?>
<!-- Generator: Adobe Illustrator 27.5.0, SVG Export Plug-In . SVG Version: 6.00 Build 0)  -->
<svg version="1.1" id="圖層_1" xmlns="http://www.w3.org/2000/svg" xmlns:xlink="http://www.w3.org/1999/xlink" x="0px" y="0px"
	 viewBox="0 0 650 650" style="enable-background:new 0 0 650 650;" xml:space="preserve">
<style type="text/css">
	.st0{fill:#E18EA5;}
	.st1{clip-path:url(#SVGID_00000018932148042512235710000014030699049129705892_);}
</style>
<g>
	<path class="st0" d="M405.8,535.7c-9-24-18.8-46-35-62.3c-5.9,0.4-11.8,0.7-17.8,0.7c-14.6,0-28.3-1.5-41.4-4.4
		c14.4,8.1,37.9,27.6,52.8,72.2c26.4,79.5,113.1,57.9,113.1,57.9S426.7,591.8,405.8,535.7z"/>
	<path class="st0" d="M316.5,440.5c100.6-22.1,147.2-140.8,157.6-214.4c10.6-74.9-15.7-69.1-46-69.1c-70.3,0-25.7-88.8-105.8-33.7
		c-92.9,63.9-71.2,188.5-54.7,269.8c4.2,20.5,8.8,38.6,21.6,45.9c-0.1-124.4,26.8-212.5,28-216.2c1.5-5,6.8-7.8,11.8-6.2
		s7.8,6.9,6.2,11.9c-0.3,1-24.8,81.5-27,194.3c34.2-29.5,53.6-61.4,64.1-84.3c13.1-28.3,15.8-49.2,15.8-49.4
		c0.7-5.2,5.4-8.9,10.5-8.2c5.2,0.6,8.9,5.3,8.2,10.5C406.4,294.9,395.9,374.6,316.5,440.5z"/>
	<path class="st0" d="M606.7,377.9c-10.5-16.5-37.5-36.1-64.6-39c-11.4,11.8-22,21.5-29.4,27.7c-11.6,9.6-25.8,18.3-40.5,26
		c24.8-0.8,47.6,0.6,65.1,7.3c9.9,3.8,18.2,8.6,25.4,12.9c12.3,7.2,21.5,12.6,34.4,11.8C620.1,419.6,621.9,401.7,606.7,377.9z"/>
	<path class="st0" d="M398.2,116.4c6.4,13.6,10.2,21.7,29.8,21.7c1.9,0,3.9,0,5.9,0c2,0,4,0,6,0c7.1,0,18.4,0,29.1,4.9
		c0.9-1,1.8-1.9,2.7-2.9c10.9-11,23.6-16.8,36.8-16.8c14.9,0,29.2,7.2,42.3,21.5c0.7,0.8,1.5,1.6,2.2,2.3
		c2.7-16.9-4.1-31.1-15.6-33.7c-15.6-3.5-35.9,8.1-75.3-30.3c-39.4-38.4-64.8,24.6-64.8,24.6l-1.4,4.1
		C396.8,113.3,397.5,114.9,398.2,116.4z"/>
	<path class="st0" d="M311.5,107.8C333,93,348.4,86.4,361.3,86.4h0c8.2,0,15.5,2.6,21.6,7.6c2.8-5.6,7.4-13.6,13.9-21.2
		c-3.8-50.8-27.2-34.1-48.5-26.3c-55.1,20.3-51-40.4-86.2-10.3c-29.8,25.4-32.4,105.6-22.1,180.1
		C250.6,169.6,274.6,133.2,311.5,107.8z"/>
	<path class="st0" d="M142.4,298.4c-13.7-7.5-26.8-14.7-38.7-24.4c-7.8,1.7-17.1,2.7-25.7,1.2c-20.2-3.5-46.5,39.2-44.4,89.4
		c0.3,8,3.7,11.8,9.4,12.7c11.1-1.9,28.2-8.9,43.8-15.2c31.5-12.8,70.4-28.7,108.4-28.5C177.2,317.5,159.2,307.6,142.4,298.4z"/>
	<path class="st0" d="M215.5,354.6c-31.4-6.6-66,3.5-97.7,15.6c25.2,3.6,41.6,15.2,48.4,28.6c13.8,26.9,46.7,52.2,98.9,43.4
		c-1.1-1.5-2.2-3.2-3.2-5c-4-7-6.8-15-9-23.2C240.7,388.8,228.2,369.6,215.5,354.6z"/>
	<path class="st0" d="M163.5,178.7c9.3,2.9,18.1,5.6,25.1,8.8c14.7,6.9,25,17.6,32.9,30.7c-3.7-27.3-5.7-54.6-5.6-79.3
		c0.1-13.5,0.8-26,2-37.5c-29.4-24.7-60.4,17-85.8,17c-15.2,0-35.7-19.7-47.7-13.4c1,4.8,1.6,9.5,2,11.5
		C94.3,157.4,132.6,169.2,163.5,178.7z"/>
	<path class="st0" d="M537,157.6c-23.9-25.9-43.1-13.7-53.1-3c5.9,7.5,9.4,17.1,10.7,29.5c1.3,11.8,0.7,26.4-1.9,44.6
		c-2.3,16.6-9,52.6-26.3,92.6c21.6-27.9,31.8-50.8,32-51.3c2.1-4.8,7.7-7,12.4-4.9c4.8,2.1,7,7.7,4.9,12.5
		c-1.3,3-27.9,62.6-87.6,109.5c-1.8,2.4-3.7,4.7-5.6,7c25.4-10,57.1-24.7,78.2-42.3c22.6-18.8,84.8-80.3,95.9-132.7
		C607.7,166.9,572.4,196.1,537,157.6z"/>
	<path class="st0" d="M241.5,357.3c-0.4-2.1-0.7-4.3-1-6.4C209,305.3,166,250,165.5,249.3c-3.2-4.1-2.5-10.1,1.6-13.3
		c4.1-3.2,10.1-2.5,13.3,1.6c0.4,0.5,27.9,35.9,55.1,73.6c0-0.3-0.1-0.6-0.1-0.9c-3.9-10.7-7.2-21.2-10.2-31.1
		c-10.9-35.1-19.6-62.8-44.7-74.5c-5.9-2.7-14-5.2-22.7-7.9c-27.3-8.4-66.4-20.6-83.5-56.4c0,1.8,0,3.7,0.1,5.6
		C78.9,303.1,163.8,248.7,241.5,357.3z"/>
	<path class="st0" d="M419.9,415.6c-13.4,5-24.3,8.5-29.7,10.2c-16.5,12.9-34.3,22.5-53.3,28.7c68.4,6,139-28.9,204.8-31.9
		c-3.5-1.8-7.2-3.5-11.1-5C504.8,407.7,462.2,411.3,419.9,415.6z"/>
	<g>
		<defs>
			<rect id="SVGID_1_" x="114.5" y="456.5" width="203.1" height="165.8"/>
		</defs>
		<clipPath id="SVGID_00000071522531635855610020000013512703655132020662_">
			<use xlink:href="#SVGID_1_"  style="overflow:visible;"/>
		</clipPath>
		<g style="clip-path:url(#SVGID_00000071522531635855610020000013512703655132020662_);">
			<path class="st0" d="M308.3,461c-1.9,0.2-3.7,0.3-5.4,0.3c-5.7,0-12.4-0.9-19.1-3.8c-13.5,3.6-26.6,5.4-39.1,5.4
				c-3,0-6-0.1-8.9-0.3c-18.9,14.7-33.6,38.8-48,61.3c-33.3,52-70.1,49.2-70.1,49.2s70.6,21.4,106.3-38.2
				c28.3-47.3,54.1-57.4,65.7-59.5c1,49.5,3.4,95.7,7.1,138c0.4,4.9,4.5,8.7,9.4,8.7c0.3,0,0.5,0,0.8,0c5.2-0.4,9.1-5,8.6-10.2
				C311.6,566,309.2,515.4,308.3,461z"/>
		</g>
	</g>
</g>
</svg>
